<?xml version="1.0" encoding="utf-8"?>
<!-- Generator: Adobe Illustrator 28.0.0, SVG Export Plug-In . SVG Version: 6.00 Build 0)  -->
<svg version="1.1" id="Layer_1" xmlns="http://www.w3.org/2000/svg" xmlns:xlink="http://www.w3.org/1999/xlink" x="0px" y="0px"
	 viewBox="0 0 300 83" style="enable-background:new 0 0 300 83;" xml:space="preserve">
<style type="text/css">
	.st0{fill:#436AB2;}
</style>
<g>
	<g>
		<g>
			<path class="st0" d="M96.8,49.6V34.8c0-2.5-0.2-4.3-0.7-5.3s-1.4-1.6-2.9-1.6c-1.1,0-2.1,0.3-3,1c-0.8,0.7-1.4,1.6-1.7,2.6v18.1
				h-7V22.4h5.4l0.8,3.6h0.2c0.9-1.2,1.9-2.2,3.2-3c1.3-0.9,2.9-1.3,5-1.3c1.7,0,3.1,0.4,4.3,1.1s2,1.9,2.6,3.6
				c0.8-1.4,1.9-2.5,3.2-3.4c1.3-0.8,2.9-1.2,4.7-1.2c1.3,0,2.6,0.1,3.9,0.5c1,0.4,1.9,1,2.6,1.9c0.7,1.1,1.3,2.3,1.5,3.6
				c0.4,1.9,0.5,3.8,0.5,5.7v16.3h-7V34.3c0-2.1-0.2-3.7-0.7-4.8c-0.4-1.1-1.4-1.6-3-1.6c-1.3,0-2.3,0.4-3,1
				c-0.8,0.8-1.4,1.8-1.6,2.8v17.8L96.8,49.6z"/>
		</g>
		<g>
			<path class="st0" d="M128.6,23.6c1.6-0.7,3.4-1.2,5.1-1.6c2-0.4,4.1-0.6,6.2-0.6c1.6,0,3.2,0.2,4.7,0.7c2.3,0.7,4,2.6,4.6,4.9
				c0.3,1.3,0.5,2.6,0.5,3.9c0,1.6-0.1,3.2-0.1,4.8c-0.1,1.6-0.2,3.2-0.2,4.7s0,3.1,0.1,4.5s0.4,2.8,0.8,4.2h-5.7l-1.1-3.7h-0.3
				c-0.8,1.2-1.8,2.2-3,2.9c-1.3,0.8-2.9,1.2-5,1.2c-1.2,0-2.3-0.2-3.4-0.6c-1.9-0.7-3.5-2.2-4.3-4.1c-0.4-1-0.6-2.1-0.6-3.2
				c0-1.5,0.3-2.9,1.1-4.2c0.8-1.2,1.9-2.1,3.2-2.8c1.6-0.8,3.3-1.3,5-1.5c2.1-0.3,4.3-0.4,6.4-0.2c0.3-2,0.1-3.5-0.4-4.4
				c-0.6-0.9-1.8-1.3-3.6-1.3c-1.5,0-3,0.1-4.5,0.4c-1.3,0.2-2.6,0.6-3.9,1.2L128.6,23.6z M137.5,43.8c1.4,0,2.5-0.3,3.3-0.9
				c0.8-0.5,1.4-1.2,1.8-2v-3.5c-1.1-0.1-2.1-0.1-3.2-0.1c-0.9,0.1-1.8,0.2-2.7,0.5c-0.7,0.2-1.4,0.6-1.9,1.1s-0.7,1.1-0.7,1.8
				c0,1,0.3,1.8,0.9,2.4C135.6,43.5,136.4,43.8,137.5,43.8z"/>
		</g>
		<g>
			<path class="st0" d="M158.9,14.8c0-1,0.4-2,1.2-2.7s1.8-1.1,3.2-1.1s2.5,0.4,3.3,1.1c0.8,0.7,1.3,1.6,1.3,2.7c0,1-0.5,2-1.3,2.6
				c-0.9,0.7-2,1.1-3.3,1.1s-2.4-0.4-3.2-1.1C159.3,16.8,158.9,15.8,158.9,14.8z M160,22.5h7v27.1h-7V22.5z"/>
		</g>
		<g>
			<path class="st0" d="M200.6,39.2c0,1.5,0,3,0.1,4.6c0,1.7,0.2,3.4,0.5,5.1h-5l-1-3.5H195c-0.7,1.3-1.8,2.4-3.1,3.1
				c-1.5,0.8-3.1,1.2-4.8,1.2c-3.4,0-6-1.1-7.9-3.4c-1.9-2.2-2.8-5.7-2.8-10.5c0-4.6,1.1-8.2,3.1-10.8c2.1-2.6,5.2-3.9,9.2-3.9
				c0.9,0,1.8,0.1,2.8,0.2c0.7,0.1,1.5,0.4,2.2,0.6v-11h7L200.6,39.2z M188.7,43.6c1.4,0,2.5-0.3,3.3-1c0.9-0.8,1.4-1.8,1.7-2.9
				V28.2c-0.5-0.4-1.1-0.7-1.7-0.9c-0.8-0.2-1.6-0.3-2.4-0.3c-2,0-3.5,0.7-4.5,2s-1.5,3.6-1.5,6.9c0,2.3,0.4,4.2,1.2,5.6
				C185.6,42.9,186.9,43.6,188.7,43.6L188.7,43.6z"/>
		</g>
		<g>
			<path class="st0" d="M221.8,41.3c0-0.7-0.3-1.4-0.9-1.7c-0.7-0.5-1.5-0.9-2.3-1.2c-0.9-0.4-1.9-0.7-3-1.1c-1.1-0.4-2-0.9-3-1.6
				c-0.9-0.7-1.7-1.6-2.3-2.6s-0.9-2.4-0.9-4c0-2.7,0.8-4.7,2.4-6.1s3.9-2.1,6.9-2.1c1.9,0,3.7,0.2,5.6,0.6c1.4,0.3,2.7,0.8,3.9,1.5
				l-1.5,5.1c-0.8-0.3-1.9-0.7-3.1-1c-1.2-0.4-2.5-0.5-3.8-0.5c-2.1,0-3.1,0.8-3.1,2.4c0,0.6,0.3,1.2,0.9,1.6
				c0.7,0.4,1.5,0.8,2.3,1.1c0.9,0.4,1.9,0.7,3,1.1s2,0.9,3,1.6c0.9,0.7,1.7,1.5,2.3,2.5s0.9,2.3,0.9,3.9c0,2.7-0.9,4.9-2.6,6.5
				c-1.7,1.6-4.4,2.4-7.9,2.4c-1.8,0-3.6-0.2-5.4-0.7c-1.4-0.4-2.8-1-4.1-1.7L211,42c1.1,0.6,2.1,1,3.3,1.4c1.4,0.4,2.8,0.7,4.2,0.7
				c0.9,0.1,1.8-0.1,2.5-0.6C221.5,43,221.8,42.3,221.8,41.3z"/>
		</g>
		<g>
			<path class="st0" d="M236.5,45.4c0-1.3,0.4-2.3,1.2-3s1.8-1.1,3.2-1.1s2.5,0.4,3.3,1.1c0.8,0.7,1.2,1.7,1.2,3
				c0.1,1.1-0.4,2.2-1.2,3s-1.9,1.2-3.3,1.2c-1.3,0-2.3-0.4-3.1-1.2C236.8,47.6,236.4,46.5,236.5,45.4z"/>
		</g>
		<g>
			<path class="st0" d="M273.5,47.1c-1.2,0.9-2.5,1.5-3.9,1.8c-1.5,0.4-3.1,0.6-4.7,0.6c-2.2,0-4-0.4-5.5-1
				c-1.4-0.7-2.7-1.6-3.7-2.9c-1-1.4-1.7-2.9-2-4.5c-0.4-1.9-0.6-3.9-0.6-5.9c0-4.6,1-8.1,3.1-10.6c2.1-2.5,5-3.7,9-3.7
				c1.6,0,3.2,0.1,4.8,0.5c1.1,0.3,2.2,0.7,3.3,1.2l-1.7,5.7c-0.8-0.4-1.6-0.7-2.5-0.9c-0.9-0.2-1.8-0.4-2.8-0.3
				c-1.9,0-3.4,0.6-4.4,1.9s-1.5,3.3-1.5,6.2c0,1.1,0.1,2.2,0.4,3.2c0.2,0.9,0.6,1.8,1.1,2.6c0.5,0.7,1.2,1.3,2,1.7
				c0.9,0.4,1.9,0.7,2.8,0.6c1,0,2.1-0.1,3-0.5c0.8-0.3,1.5-0.7,2.2-1.1L273.5,47.1z"/>
		</g>
		<g>
			<path class="st0" d="M299.8,47.1c-1.2,0.9-2.5,1.5-3.9,1.8c-1.5,0.4-3.1,0.6-4.7,0.6c-2.2,0-4-0.4-5.5-1
				c-1.4-0.6-2.7-1.7-3.6-2.9c-1-1.4-1.7-2.9-2-4.5c-0.4-1.9-0.6-3.9-0.6-5.9c0-4.6,1-8.1,3.1-10.6s5-3.7,9-3.7
				c1.6,0,3.2,0.1,4.8,0.5c1.1,0.3,2.2,0.7,3.3,1.2l-1.7,5.7c-0.8-0.4-1.6-0.7-2.5-0.9c-0.9-0.2-1.8-0.3-2.8-0.3
				c-1.9,0-3.4,0.6-4.4,1.9s-1.5,3.3-1.5,6.2c0,1.1,0.1,2.2,0.4,3.2c0.2,0.9,0.6,1.8,1.1,2.6c0.5,0.7,1.2,1.3,2,1.7
				c0.9,0.4,1.9,0.7,2.8,0.6c1,0,2.1-0.1,3-0.5c0.8-0.3,1.5-0.7,2.2-1.1L299.8,47.1z"/>
		</g>
	</g>
	<g>
		<g>
			<path class="st0" d="M28.2,30.3c0.2-0.2,0.3-0.5,0.4-0.7c0.1-0.3,0.1-0.3,0.4-0.3s0.6,0,1,0.1c0.3,0.1,0.3,0.1,0.3,0.4
				c-0.1,0.4-0.3,0.8-0.4,1.2c-0.8,2.2-1.6,4.3-2.4,6.5c-0.6,1.8-0.9,3.6-0.7,5.5c0,0.5,0.1,1.1,0.2,1.6c0,0.1,0,0.2,0.1,0.3
				c0.1-0.2,0.1-0.5,0.1-0.7c0.2-1.4,0.3-2.7,0.5-4.1c0.1-1,0.4-1.9,1-2.8c1.1-1.5,2.5-2.3,4.3-2.4c3.3,0,6.7,0,10,0
				c1.6,0,2.9,0.7,3.9,1.9c0.4,0.6,0.7,1.2,0.9,1.9c0.4,1.6,0.8,3.3,1.2,4.9c0.1,0.4,0.1,0.8,0.2,1.2c0.1,0.5,0,0.9-0.3,1.3
				c-0.2,0.3-0.5,0.6-0.7,0.9c-0.4,0.5-0.8,0.9-1,1.5c-0.7,1.7-0.5,3.4,0.7,4.9c0.3,0.4,0.5,0.7,0.4,1.2c0,0.4-0.2,0.6-0.5,0.8
				c-0.2,0.1-0.3,0.1-0.5,0.2c-0.4,0.2-0.8,0.4-1.1,0.8c-0.2,0.2-0.3,0.4-0.3,0.7c-0.1,0.6-0.1,1.3-0.1,1.9c0,2.3,0,4.6,0,6.9
				c0,0.3-0.1,0.5-0.3,0.6s-0.3,0.1-0.5,0.1s-0.4,0-0.5,0s-0.2,0.1-0.2,0.3c0,0.2,0,0.3,0,0.5c0,2.2,0,4.4,0,6.6c0,0.4,0,0.8,0,1.2
				c-0.1,1.3-1.3,2.4-2.6,2.4c-2.4,0-4.7,0-7.1,0c-0.6,0-1-0.2-1.4-0.5c-0.6-0.5-1-1.2-1-2c0-0.7,0-1.3,0-2c0-1.9,0-3.9,0-5.8
				c0-0.1,0-0.1,0-0.2c0-0.4-0.1-0.5-0.4-0.5c-0.4-0.1-0.8-0.1-1.3,0c-0.3,0-0.6,0-0.9-0.2c-0.7-0.4-1-1-0.9-1.7
				c0.1-1.4,0.3-2.7,0.5-4.1c0.1-0.7,0.2-1.4,0.3-2.2v-0.1c0-0.7-0.1-0.9-0.7-1.1c-0.2-0.1-0.4-0.1-0.6-0.2c-0.1,0-0.2-0.1-0.3-0.1
				c-1-0.4-1.6-1.3-1.6-2.5c0-0.6,0.1-1.1,0.2-1.7c0.1-0.9,0.3-1.8,0.3-2.7c0-0.6,0-1.2-0.1-1.7c-0.1-1.1-0.2-2.1-0.3-3.2
				c-0.1-0.6-0.1-1.2-0.2-1.8c-0.1-1-0.5-1.9-1-2.7c-0.8-1.4-1.8-2.6-2.8-3.8s-2-2.4-3-3.6c-0.2-0.3-0.5-0.5-0.6-0.9
				c-0.1-0.4,0-0.8,0.3-1c0.2-0.2,0.4-0.3,0.7-0.4c0.4-0.1,0.7,0,0.9,0.4c0.1,0.1,0.1,0.2,0.1,0.3c0,0,0,0.1,0.1,0.1l0.1-0.1
				c0-0.2,0-0.5,0-0.7c0-0.3,0-0.3,0.3-0.5c0.4-0.2,0.8-0.3,1.2-0.4c1.1-0.3,2.2-0.5,3.3-0.6c0.8-0.1,1.6-0.1,2.4-0.1
				c0.1,0,0.2,0.1,0.3,0.2c0.1,0.2,0.2,0.3,0.2,0.5C28.1,30,28.1,30.1,28.2,30.3z M37.3,52.9L37.3,52.9c-0.8,0-1.6,0-2.4,0
				c-1.8,0-3.7,0-5.5,0c-0.2,0-0.4,0-0.5,0.1c-0.3,0.1-0.6,0.4-0.6,0.7s0.2,0.6,0.5,0.7c0.2,0.1,0.5,0.1,0.7,0.1c0.3,0,0.5,0,0.8,0
				c0.8,0.1,1.5,0.6,1.6,1.5c0,0.2,0,0.4,0,0.7c-0.1,0.5-0.1,1.1-0.2,1.6c-0.3,1.2,0.6,2.6,1.4,3c0.3,0.2,0.7,0.4,1.1,0.4
				c0.3,0,0.6,0.1,0.8,0.1c1.9,0,3.8,0,5.8,0c1.5-0.1,2.6-1.5,2.7-2.5c0-0.4,0-0.9,0-1.3c-0.1-0.6-0.2-1.1-0.3-1.7
				c-0.1-0.6,0.2-1,0.6-1.3c0.3-0.2,0.7-0.3,1-0.3s0.5,0,0.8-0.1c0.4,0,0.6-0.3,0.7-0.7c0-0.4-0.2-0.7-0.6-0.8c-0.3-0.1-0.6,0-1,0
				C42.3,52.9,39.8,52.9,37.3,52.9z"/>
		</g>
		<g>
			<path class="st0" d="M35.8,5.5c1.6,0,3.1,0.3,4.5,1.1c0.5,0.2,0.9,0.5,1.3,0.9c1.6,1.3,3.1,2.6,4.7,4c2.5,2.1,5,4.3,7.5,6.4
				c1.1,0.9,2.1,1.8,3.2,2.7c1.1,0.9,2.2,1.9,3.3,2.8c1.9,1.6,3.8,3.2,5.7,4.8c1.5,1.3,3.1,2.6,4.6,4c0.2,0.1,0.3,0.3,0.5,0.4
				c1.2,1.2,0.7,3.5-0.9,4.2c-1,0.4-1.9,0.2-2.7-0.4c-0.4-0.3-0.9-0.7-1.3-1.1c-1.5-1.3-3.1-2.6-4.6-3.9c-1.5-1.3-3.1-2.5-4.5-3.8
				c-1.2-1.1-2.5-2-3.7-3.1c-1.1-0.9-2.2-1.8-3.3-2.8c-1.3-1.1-2.6-2.2-3.9-3.4c-1.9-1.6-3.7-3.2-5.6-4.8c-0.7-0.6-1.3-1.2-2.1-1.6
				c-0.8-0.5-1.7-0.8-2.6-0.7c-0.8,0-1.6,0.3-2.3,0.7c-0.5,0.3-0.9,0.6-1.3,1c-0.7,0.7-1.5,1.3-2.3,2c-1.5,1.3-3,2.5-4.4,3.8
				c-1.6,1.3-3.1,2.6-4.7,3.9c-1.5,1.3-3.1,2.6-4.6,3.9c-0.9,0.8-1.8,1.5-2.7,2.2c-1.7,1.5-3.4,2.9-5.2,4.4c-1.2,1-2.4,2.1-3.6,3.1
				c-0.5,0.4-1,0.8-1.7,0.9c-0.3,0.1-0.6,0.1-0.9,0c-1.2-0.5-2-1.2-2.2-2.5c-0.1-0.8,0.2-1.6,0.7-2.2c0.3-0.3,0.7-0.7,1.1-1
				c1.2-1,2.4-2.1,3.7-3.1c1.4-1.2,2.7-2.3,4.1-3.5c2.4-2.1,4.9-4.2,7.3-6.2c1.4-1.2,2.9-2.4,4.3-3.6c1.8-1.6,3.7-3.2,5.6-4.8
				c1-0.8,1.9-1.7,2.9-2.5c1.2-1,2.5-1.7,4-2.1c0.3-0.1,0.6-0.1,0.9-0.2C35,5.5,35.4,5.4,35.8,5.5z"/>
		</g>
		<g>
			<path class="st0" d="M25.6,60c0,1.4,0,2.8,0,4.2c0,0.6-0.2,1.1-0.5,1.6c-0.4,0.5-0.8,0.9-1.4,1.2c-0.6,0.2-0.5,0.3-0.5,0.9
				c0,0.7,0,1.5,0,2.2c0,1.3,0,2.6,0,3.9c0,0.5,0,1.1-0.1,1.6c-0.2,0.9-0.8,1.6-1.7,2c-0.3,0.1-0.6,0.1-1,0.1c-0.7,0-1.4,0-2.1,0
				c-1.2,0.1-2.4-0.9-2.5-2.2c-0.1-0.5-0.1-1-0.1-1.5c0-2,0-4,0-6c0-0.6-0.2-1-0.7-1.2c-0.4-0.2-0.7-0.4-1-0.7
				c-0.4-0.5-0.7-1-0.7-1.6c0-0.3,0-0.5,0-0.8c0-2.7,0-5.4,0-8c0-0.5,0.1-1,0.3-1.4c0.5-1,1.3-1.5,2.4-1.5c1.6-0.1,3.2-0.1,4.8,0
				c0.6,0,1.1,0,1.7,0c1.5,0,3,1.1,3,3c0,1.1,0,2.3,0,3.4C25.6,59.4,25.6,59.7,25.6,60z"/>
		</g>
		<g>
			<path class="st0" d="M56.4,62.1c0,1.4,0,2.7,0,4.1c0,0.2,0,0.4,0,0.5c-0.1,0.6-0.4,1-1,1.2C55.2,68,55,68,54.8,68
				c-0.2,0.1-0.3,0.2-0.3,0.4c0,0.2,0,0.3,0.1,0.5c0.5,1.2,1,2.3,1.5,3.5c0.1,0.3,0.2,0.5,0.3,0.8c0.4,0.8-0.2,1.5-1,1.6
				c-0.1,0-0.1,0-0.2,0c-0.4,0-0.6,0.2-0.8,0.4c-0.1,0.1-0.2,0.2-0.2,0.4c0,0.2,0,0.3-0.1,0.5c-0.1,0.6-0.6,1-1.2,1
				c-1.1,0-2.2,0-3.3,0c-0.6,0-0.8-0.2-1-0.8c-0.1-0.2-0.1-0.5-0.2-0.7c-0.1-0.4-0.3-0.7-0.7-0.8c-0.2,0-0.4-0.1-0.6-0.1
				c-0.6-0.1-1-0.7-0.9-1.4c0-0.2,0.1-0.3,0.2-0.5c0.6-1.3,1.1-2.6,1.7-3.9c0.1-0.2,0.1-0.3,0.2-0.5c0.1-0.4-0.1-0.6-0.4-0.6
				c-0.1,0-0.2,0-0.3-0.1c-0.6-0.1-1-0.5-1.1-1.1c0-0.2,0-0.4,0-0.7c0-2.9,0-5.9,0-8.8c0-0.3,0.1-0.6,0.3-0.8s0.4-0.4,0.7-0.4
				c0.2,0,0.4,0,0.6,0c2.3,0,4.7,0,7,0h0.1c0.7,0,1.1,0.4,1.2,1c0,0.2,0.1,0.5,0.1,0.7C56.4,59.3,56.4,60.7,56.4,62.1L56.4,62.1z"/>
		</g>
		<g>
			<path class="st0" d="M37.9,33.7c-2.8,0.2-5.8-2.2-6.3-5.4c-0.2-1.2-0.1-2.4,0.3-3.5c0.6-1.4,1.5-2.5,2.8-3.2
				c0.7-0.4,1.4-0.7,2.2-0.8c0.5-0.1,1-0.1,1.6-0.1c0.4,0,0.7,0,1.1,0.1c1.1,0.2,2.1,0.8,2.9,1.6c1.1,1,1.8,2.3,2,3.8
				c0.3,1.6,0,3.2-0.8,4.5s-1.9,2.3-3.4,2.8C39.4,33.6,38.6,33.7,37.9,33.7z"/>
		</g>
		<g>
			<path class="st0" d="M24.6,46.5c0,1.1-0.3,2-0.9,2.8c-0.8,1.3-2,2-3.5,2.2c-2.8,0.4-5.4-1.6-5.8-4.3c-0.2-1.7,0.2-3.1,1.3-4.3
				c0.8-0.8,1.8-1.3,2.9-1.6c2.6-0.5,5.6,1.6,5.8,4.4C24.6,46.1,24.6,46.3,24.6,46.5z"/>
		</g>
		<g>
			<path class="st0" d="M58.3,11.3c0,1.1,0,2.1,0,3.2c0,0.2,0,0.5,0,0.7c-0.2,1.4-1.8,2.2-3.1,1.8c-0.3-0.1-0.5-0.2-0.7-0.4
				c-0.6-0.5-1.1-0.9-1.6-1.4c-0.6-0.6-1.2-1.1-1.8-1.6L51,13.5c-0.7-0.6-1-1.3-1-2.2c0-1.2,0-2.3,0-3.5c0-1.3,1.1-2.3,2.3-2.3
				s2.4,0,3.5,0c0.7,0,1.3,0.3,1.8,0.8c0.4,0.4,0.6,1,0.6,1.6C58.3,8.9,58.3,10.1,58.3,11.3L58.3,11.3z"/>
		</g>
		<g>
			<path class="st0" d="M55.5,50.4c0,2-1.5,4-4.2,4c-2.6-0.2-4-2-4-4.1c0-2.6,2.1-4.1,4.2-4.1C53.1,46.1,55.6,47.7,55.5,50.4z"/>
		</g>
	</g>
	<g>
		<g>
			<polygon class="st0" points="86.4,71.9 81.4,59 83.6,59 87.4,69.7 91.3,59 93.4,59 88.4,71.9 			"/>
		</g>
		<g>
			<path class="st0" d="M101.6,55.3c0,0.2-0.1,0.5-0.2,0.7s-0.3,0.4-0.5,0.5s-0.4,0.2-0.7,0.2c-0.2,0-0.5-0.1-0.7-0.2
				c-0.2-0.1-0.4-0.3-0.5-0.5s-0.2-0.5-0.2-0.7s0.1-0.5,0.2-0.7s0.3-0.4,0.5-0.5s0.4-0.2,0.7-0.2c0.2,0,0.5,0.1,0.7,0.2
				C101.3,54.4,101.5,54.8,101.6,55.3z M99.2,71.9V59h2v12.8L99.2,71.9L99.2,71.9z"/>
		</g>
		<g>
			<path class="st0" d="M112.3,71.9c-0.7,0-1.4-0.1-2.1-0.4c-0.6-0.2-1.2-0.6-1.7-1.1s-0.8-1-1.1-1.6l1.8-0.6
				c0.3,0.6,0.7,1.1,1.3,1.5c0.5,0.3,1.2,0.5,1.8,0.5c0.5,0,1-0.1,1.4-0.3c0.4-0.2,0.7-0.4,1-0.7c0.2-0.3,0.3-0.7,0.3-1.1
				c0-1.1-0.8-1.8-2.3-2.1l-1-0.2c-1.3-0.3-2.3-0.7-3-1.3c-0.6-0.6-1-1.4-1-2.3c0-0.7,0.2-1.4,0.6-2s0.9-1.1,1.6-1.3
				c0.7-0.3,1.5-0.5,2.3-0.5c0.7,0,1.4,0.1,2,0.4c0.6,0.2,1.1,0.6,1.5,1c0.4,0.5,0.8,1,1,1.6l-1.8,0.6c-0.2-0.6-0.6-1.1-1.1-1.4
				c-0.5-0.3-1.1-0.5-1.7-0.5c-0.4,0-0.9,0.1-1.3,0.3c-0.3,0.1-0.6,0.4-0.9,0.7c-0.2,0.3-0.3,0.6-0.3,1c0,0.5,0.2,1,0.6,1.3
				s1.1,0.6,2,0.7l1,0.2c1.2,0.2,2.1,0.7,2.8,1.3c0.6,0.6,1,1.5,1,2.4c0,0.6-0.1,1.1-0.4,1.6c-0.2,0.5-0.6,0.9-1,1.3
				s-0.9,0.7-1.5,0.8C113.6,71.8,113,71.9,112.3,71.9z"/>
		</g>
		<g>
			<path class="st0" d="M127.3,71.9c-0.8,0-1.6-0.2-2.4-0.5c-0.7-0.3-1.2-0.8-1.6-1.4c-0.8-1.3-0.8-3,0.1-4.3
				c0.5-0.6,1.1-1.1,1.8-1.4c0.9-0.4,1.8-0.5,2.8-0.5c0.6,0,1.2,0.1,1.8,0.2s1.1,0.3,1.6,0.5v-0.9c0-0.6-0.1-1.3-0.4-1.8
				c-0.2-0.5-0.6-0.9-1.1-1.2s-1.1-0.5-1.7-0.4c-0.7,0-1.4,0.2-2,0.5c-0.6,0.4-1,0.9-1.3,1.5l-1.7-0.6c0.2-0.6,0.6-1.2,1.1-1.7
				s1.1-0.9,1.7-1.1c0.7-0.3,1.5-0.4,2.2-0.4c0.9,0,1.8,0.2,2.7,0.7c0.8,0.4,1.4,1.1,1.8,1.8c0.4,0.9,0.7,1.8,0.6,2.8v7.9h-1.7
				l-0.1-2c-0.4,0.7-0.9,1.3-1.6,1.7C129.1,71.7,128.2,71.9,127.3,71.9z M124.8,67.8c0,0.4,0.1,0.9,0.4,1.3s0.6,0.6,1,0.8
				c0.5,0.2,1,0.3,1.5,0.3c0.7,0,1.3-0.2,1.9-0.5s1-0.8,1.4-1.3c0.3-0.6,0.5-1.2,0.5-1.9V66c-0.5-0.2-1.1-0.4-1.6-0.5
				s-1-0.2-1.5-0.2c-1.1,0-1.9,0.2-2.6,0.7C125.1,66.4,124.8,67.1,124.8,67.8L124.8,67.8z"/>
		</g>
		<g>
			<path class="st0" d="M144.4,71.9c-0.7,0-1.4-0.1-2.1-0.4c-0.6-0.2-1.2-0.6-1.7-1.1s-0.8-1-1.1-1.6l1.8-0.6
				c0.3,0.6,0.7,1.1,1.3,1.5c0.5,0.3,1.2,0.5,1.8,0.5c0.5,0,1-0.1,1.4-0.3c0.4-0.2,0.7-0.4,1-0.7c0.2-0.3,0.3-0.7,0.3-1.1
				c0-1.1-0.8-1.8-2.3-2.1l-1-0.2c-1.3-0.3-2.3-0.7-3-1.3c-0.6-0.6-1-1.4-1-2.3c0-0.7,0.2-1.4,0.6-2c0.4-0.6,0.9-1.1,1.6-1.3
				c0.7-0.3,1.5-0.5,2.3-0.5c0.7,0,1.4,0.1,2,0.4c0.6,0.2,1.1,0.6,1.5,1c0.4,0.5,0.8,1,1,1.6L147,62c-0.2-0.6-0.6-1.1-1.1-1.4
				c-0.5-0.3-1.1-0.5-1.7-0.5c-0.4,0-0.9,0.1-1.3,0.3c-0.3,0.1-0.6,0.4-0.9,0.7c-0.2,0.3-0.3,0.6-0.3,1c0,0.5,0.2,1,0.6,1.3
				c0.4,0.3,1.1,0.6,2,0.7l1,0.2c1.2,0.2,2.1,0.7,2.8,1.3c0.6,0.6,1,1.5,1,2.4c0,0.6-0.1,1.1-0.4,1.6c-0.2,0.5-0.6,0.9-1,1.3
				s-0.9,0.7-1.5,0.8C145.7,71.8,145,71.9,144.4,71.9z"/>
		</g>
		<g>
			<path class="st0" d="M169.7,71.9c-0.7,0-1.4-0.1-2-0.3c-0.6-0.2-1.1-0.5-1.6-0.9c-0.4-0.4-0.8-0.9-1-1.4c-0.5-1.1-0.5-2.4,0-3.5
				c0.3-0.6,0.6-1.1,1.1-1.5c0.5-0.5,1-0.9,1.6-1.2c-0.6-0.6-1.1-1.2-1.5-2c-0.3-0.6-0.5-1.2-0.5-1.9c0-0.5,0.1-1,0.3-1.5
				c0.2-0.4,0.5-0.8,0.8-1.2c0.4-0.3,0.8-0.6,1.2-0.8c1.1-0.4,2.4-0.4,3.5,0.2c0.5,0.3,1,0.7,1.3,1.2s0.5,1.2,0.5,1.8
				c0,0.8-0.3,1.6-0.8,2.3c-0.6,0.8-1.4,1.5-2.4,2l4.1,4.1c0.3-0.6,0.6-1.3,0.8-2c0.2-0.8,0.4-1.6,0.4-2.4l1.7,0.2
				c-0.1,1-0.3,2-0.6,3c-0.3,0.8-0.6,1.7-1.1,2.4l2.9,2.9h-2.3l-1.6-1.6c-0.6,0.7-1.4,1.2-2.2,1.5C171.5,71.7,170.6,71.9,169.7,71.9
				z M169.1,62.1l0.1,0.1c1.7-0.8,2.5-1.9,2.5-3.1c0-0.4-0.1-0.7-0.3-1s-0.4-0.6-0.7-0.7c-0.3-0.2-0.7-0.3-1-0.3
				c-0.4,0-0.8,0.1-1.1,0.3s-0.6,0.5-0.8,0.8s-0.3,0.7-0.3,1.1c0,0.5,0.1,0.9,0.4,1.3C168.3,61.1,168.7,61.6,169.1,62.1z
				 M166.5,67.3c0,0.5,0.1,1,0.4,1.5c0.3,0.4,0.7,0.8,1.2,1s1.1,0.4,1.7,0.4c0.7,0,1.3-0.1,2-0.4c0.6-0.3,1.2-0.6,1.7-1.1l-4.6-4.6
				c-0.7,0.3-1.3,0.8-1.7,1.4C166.7,66,166.5,66.7,166.5,67.3z"/>
		</g>
		<g>
			<path class="st0" d="M194.1,71.9V59h1.8l0.1,2c0.4-0.7,0.9-1.3,1.6-1.7c0.7-0.5,1.6-0.7,2.5-0.7s1.8,0.2,2.5,0.7s1.3,1.2,1.6,2
				c0.4,0.9,0.6,2,0.6,3v7.5h-2v-7.4c0-1.3-0.3-2.3-0.8-3c-0.6-0.7-1.3-1-2.3-1c-0.7,0-1.3,0.2-1.9,0.5c-0.5,0.3-1,0.8-1.3,1.3
				c-0.3,0.6-0.5,1.3-0.5,1.9v7.6h-1.9V71.9z"/>
		</g>
		<g>
			<path class="st0" d="M215.8,71.9c-0.8,0-1.6-0.2-2.4-0.5c-0.7-0.3-1.2-0.8-1.6-1.4c-0.8-1.3-0.8-3,0.1-4.3
				c0.5-0.6,1.1-1.1,1.8-1.4c0.9-0.4,1.8-0.5,2.8-0.5c0.6,0,1.2,0.1,1.8,0.2s1.1,0.3,1.6,0.5v-0.9c0-0.6-0.1-1.3-0.4-1.8
				c-0.2-0.5-0.6-0.9-1.1-1.2s-1.1-0.5-1.7-0.4c-0.7,0-1.4,0.2-2,0.5c-0.6,0.4-1,0.9-1.3,1.5l-1.7-0.6c0.2-0.6,0.6-1.2,1.1-1.7
				s1.1-0.9,1.7-1.1c0.7-0.3,1.5-0.4,2.2-0.4c0.9,0,1.8,0.2,2.7,0.7c0.8,0.4,1.4,1.1,1.8,1.8c0.4,0.9,0.7,1.8,0.6,2.8v7.9h-1.7
				l-0.1-2c-0.4,0.7-0.9,1.3-1.6,1.7C217.5,71.7,216.7,71.9,215.8,71.9z M213.2,67.8c0,0.5,0.1,0.9,0.4,1.3c0.3,0.4,0.6,0.6,1,0.8
				c0.5,0.2,1,0.3,1.5,0.3c0.7,0,1.3-0.2,1.9-0.5c0.6-0.3,1-0.8,1.4-1.3c0.3-0.6,0.5-1.2,0.5-1.9V66c-0.5-0.2-1.1-0.4-1.6-0.5
				s-1-0.2-1.5-0.2c-1.1,0-1.9,0.2-2.6,0.7C213.5,66.4,213.2,67.1,213.2,67.8z"/>
		</g>
		<g>
			<path class="st0" d="M228.8,71.9V59h1.8l0.1,2c0.4-0.7,0.9-1.3,1.6-1.7c0.7-0.5,1.6-0.7,2.5-0.7s1.8,0.2,2.5,0.7s1.3,1.2,1.6,2
				c0.4,0.9,0.6,2,0.6,3v7.5h-2v-7.4c0-1.3-0.3-2.3-0.8-3c-0.6-0.7-1.3-1-2.3-1c-0.7,0-1.3,0.2-1.9,0.5c-0.5,0.3-1,0.8-1.3,1.3
				c-0.3,0.6-0.5,1.3-0.5,1.9v7.6h-1.9V71.9z"/>
		</g>
		<g>
			<path class="st0" d="M246.6,71.9V59h1.8l0.1,2c0.4-0.7,0.9-1.3,1.6-1.7c0.7-0.5,1.6-0.7,2.5-0.7s1.8,0.2,2.5,0.7s1.3,1.2,1.6,2
				c0.4,0.9,0.6,2,0.6,3v7.5h-2v-7.4c0-1.3-0.3-2.3-0.8-3c-0.6-0.7-1.3-1-2.3-1c-0.7,0-1.3,0.2-1.9,0.5c-0.5,0.3-1,0.8-1.3,1.3
				c-0.3,0.6-0.5,1.3-0.5,1.9v7.6h-1.9V71.9z"/>
		</g>
		<g>
			<path class="st0" d="M266.7,55.3c0,0.2-0.1,0.5-0.2,0.7s-0.3,0.4-0.5,0.5s-0.4,0.2-0.7,0.2c-0.2,0-0.5-0.1-0.7-0.2
				c-0.2-0.1-0.4-0.3-0.5-0.5s-0.2-0.5-0.2-0.7s0.1-0.5,0.2-0.7s0.3-0.4,0.5-0.5s0.4-0.2,0.7-0.2c0.2,0,0.5,0.1,0.7,0.2
				C266.4,54.4,266.7,54.8,266.7,55.3z M264.4,71.9V59h2v12.8L264.4,71.9L264.4,71.9z"/>
		</g>
		<g>
			<path class="st0" d="M279.2,71.9c-0.9,0-1.8-0.2-2.6-0.5c-0.8-0.3-1.4-0.8-2-1.4s-1-1.3-1.3-2.1c-0.3-0.9-0.5-1.8-0.5-2.7
				c0-0.9,0.1-1.8,0.4-2.7c0.3-0.8,0.7-1.5,1.3-2.2c0.5-0.6,1.2-1.1,1.9-1.4c0.8-0.3,1.6-0.5,2.4-0.5s1.6,0.2,2.3,0.5
				c0.7,0.3,1.3,0.8,1.9,1.3c0.5,0.6,0.9,1.3,1.2,2c0.3,0.8,0.5,1.7,0.4,2.5v0.8h-9.9c0,0.8,0.3,1.7,0.6,2.4
				c0.3,0.7,0.9,1.2,1.5,1.6c0.7,0.4,1.4,0.6,2.2,0.6c0.7,0,1.4-0.2,2.1-0.5c0.6-0.4,1.2-0.9,1.5-1.5l1.7,0.8
				c-0.3,0.6-0.8,1.2-1.3,1.6c-0.5,0.5-1.2,0.8-1.8,1C280.7,71.8,279.9,71.9,279.2,71.9z M278.9,60c-0.6,0-1.3,0.2-1.8,0.5
				c-0.6,0.4-1,0.8-1.4,1.4c-0.4,0.6-0.6,1.3-0.7,2h7.7c0-0.7-0.3-1.4-0.6-2c-0.3-0.6-0.8-1-1.3-1.4C280.2,60.2,279.5,60,278.9,60z"
				/>
		</g>
		<g>
			<path class="st0" d="M295.3,71.9c-0.7,0-1.4-0.1-2.1-0.4c-0.6-0.2-1.2-0.6-1.7-1.1s-0.8-1-1.1-1.6l1.8-0.6
				c0.3,0.6,0.7,1.1,1.3,1.5c0.5,0.3,1.2,0.5,1.8,0.5c0.5,0,1-0.1,1.4-0.3c0.4-0.2,0.7-0.4,1-0.7c0.2-0.3,0.3-0.7,0.3-1.1
				c0-1.1-0.8-1.8-2.3-2.1l-1-0.2c-1.3-0.3-2.3-0.7-3-1.3c-0.6-0.6-1-1.4-1-2.3c0-0.7,0.2-1.4,0.6-2s0.9-1.1,1.6-1.3
				c0.7-0.3,1.5-0.5,2.3-0.5c0.7,0,1.4,0.1,2,0.4c0.6,0.2,1.1,0.6,1.5,1c0.4,0.5,0.8,1,1,1.6l-1.8,0.6c-0.2-0.6-0.6-1.1-1.1-1.4
				c-0.5-0.3-1.1-0.5-1.7-0.5c-0.4,0-0.9,0.1-1.3,0.3c-0.3,0.1-0.6,0.4-0.9,0.7c-0.2,0.3-0.3,0.6-0.3,1c0,0.5,0.2,1,0.6,1.3
				s1.1,0.6,2,0.7l1,0.2c1.2,0.2,2.1,0.7,2.8,1.3c0.6,0.6,1,1.5,1,2.4c0,0.6-0.1,1.1-0.4,1.6c-0.2,0.5-0.6,0.9-1,1.3
				s-0.9,0.7-1.5,0.8C296.5,71.8,295.9,71.9,295.3,71.9z"/>
		</g>
	</g>
</g>
</svg>
